<?xml version="1.0" encoding="UTF-8"?>
<svg id="Layer_1" xmlns="http://www.w3.org/2000/svg" version="1.1" viewBox="0 0 300 100">
  <!-- Generator: Adobe Illustrator 29.8.2, SVG Export Plug-In . SVG Version: 2.1.1 Build 3)  -->
  <defs>
    <style>
      .st0 {
        fill: #272a60;
      }

      .st1 {
        fill: #282b60;
      }

      .st2 {
        fill: #24295e;
      }

      .st3 {
        fill: #f4965e;
      }

      .st4 {
        fill: #262a5f;
      }

      .st5 {
        fill: #282c61;
      }

      .st6 {
        fill: #262960;
      }
    </style>
  </defs>
  <path class="st3" d="M151.26,28.35c.55.46,3.11.25,4.51.94,9.25,4.56,11.17,14.65,6.1,23.29-2.14,3.66-7.5,6.19-9.2,8.52-.45.61-.46,5.09-1.09,6.92-2.79,8.07-8.87,12.47-17.67,10.64-2.39-.5-5.39-3.33-7.34-3.5-2.21-.19-5.51,2.98-8.01,3.5-8.46,1.77-15.19-2.59-17.71-10.6-.72-2.28.02-5.36-.94-6.97-.51-.85-4.35-2.25-6.02-3.89-7.78-7.61-9.37-20.57.82-26.91,1.68-1.05,4.6-1.41,5.65-2.29,1.25-1.05,1.93-4.79,3.17-6.72,3.83-5.96,10.63-7.78,17.3-5.65,1.91.61,4.3,2.75,5.08,2.87s5.4-3.15,8.02-3.57c8.03-1.29,12.48,2.89,16.06,9.26.66,1.18.89,3.82,1.27,4.15h0ZM143.81,71.67c4.26-3.92,2.18-10.17,3.77-13.53,1.72-3.63,11.85-3.95,11.53-15.3-.31-11.03-11.45-8.55-12.58-10.3-1.65-2.56.88-7.08-4.9-10.93-8.36-5.58-13.75,4.24-15.78,3.89-4.31-4.34-9.21-7.78-15.05-3.89-5.18,3.45-3.78,9.36-5.85,10.97-2.19,1.69-8.04.68-10.44,4.44-1.92,3.01-1.41,9.37.13,12.52,2.21,4.52,9.52,7.17,10.24,8.6,2.05,4.11-1.38,10.86,6.07,14.7,7.08,3.65,10.19-3.19,14.95-3.6,4.39-.38,10.76,9.02,17.92,2.44h0Z"/>
  <path class="st4" d="M174.21,39.14c4.67,4.81,17.74,1.35,19.78,11.52,2.63,13.1-15.48,22.43-25.97,14.85-3.76-2.72-4.61-6.53-.41-9.25,4.13,4.03,19.58,6.86,20.29-.63.75-7.88-19.4-4.6-20.88-14.84-1.97-13.63,19.22-22.54,27.64-11.63-2.58,11.96-15.15-4.12-21.58,5.97-.29,1.16.3,3.14,1.13,4h0Z"/>
  <path class="st6" d="M271.37,46.3c3.46-.24,4.69-4.49,7.89-5.48,22.83-7.08,12.24,37.88-8.88,25.23-.99,3.38-1.98,9.07-.07,12.16.92,1.49,5.46,1.67.59,5.66-3.63,2.97-8.17,1.06-8.45-3.54-.41-6.78,6.88-27.87,2.71-32.79-.91-1.07-3.78-.74-3.77-1.76,1.48-7.33,10.53-7.71,9.97.53h.01ZM279.03,47.49c-2.15.65-8.07,8.03-7.58,10.08,14.26,13.45,21.93-14.41,7.58-10.08Z"/>
  <path class="st2" d="M33.41,47.92c-3.55,3.63-8.53,5.53-13.63,3.87l-.92-6.48c19.15,4.83,16.9-18.14-1.98-12.83.84,7.15-1.97,15.33-1.81,22.21.12,5.14,6.83,10.58-.15,12.92-10.38,3.47-4.39-15.99-4.03-20.84.27-3.58-.2-7.22.08-10.8l-2.95-.6c-1.45-9.47,12.12-11.66,19.2-10.71,12.09,1.63,13.76,15.51,6.19,23.26Z"/>
  <path class="st1" d="M205.76,50.25c1.49,1.66,1.76-.62,2.22-1.28,3.57-5.21,7.21-12.08,15.68-8.09,6.34,2.99.63,12.99,1.18,16.58s4.83,3.8,4.85,6.11c.03,5.18-11.05,7.29-11.08-2.94,0-3.53,4.94-13.19-1.39-13.32-4.69-.1-8.07,7.62-9.52,11.28-1.28,3.25-.32,8.89-4.63,9.27-5.94.51-1.47-10.03-1.24-14.11.28-5.1.46-12.87,0-17.85-.44-4.72-5.98-12.36.51-13.31,7.51-1.11,5.9,15.25,5.42,20.27-.17,1.73-2.28,7.07-1.99,7.4h0Z"/>
  <path class="st5" d="M58.28,53.87c-3.88,3.8-10.83,3.66-15.55,1.81,2.84,9.58,11.15,4.74,17.87,2.49,1.1,4.53-5.07,8.55-8.87,9.44-23.16,5.44-17.32-31.84,4.19-27,6.45,1.45,6.53,9.18,2.36,13.27h0ZM48.41,46.48c-1.98.42-6.55,3.51-3.74,5.29,10.25,4.08,13.4-7.31,3.74-5.29Z"/>
  <path class="st0" d="M235.57,50.28l-3-2.44c-.25-7.73,24.7-13.54,25.89,2.93,1.65,22.75-33.6,23.6-22.89-.49h0ZM242.19,47.45c-3.8,1.3-5.92,11.86,1.05,13.45,14.11,3.22,13.69-18.5-1.05-13.45Z"/>
  <path class="st2" d="M76.51,35.44v4.93h7.96c-.07,1.13.18,2.36.04,3.48-.97,7.5-8.43-.26-9.83,4.08l.34,10.22c.69.92,1.68,1.77,2.74,2.21,2.28.96,5.79-.23,5.75,2.25-.07,4.38-4.91,5.83-8.5,5.5-9.03-.83-6.8-14.54-5.45-20.82-.87-.77-6.56,2.26-3.06-4.52,1.73-3.34,5.97-7.68,10.01-7.33Z"/>
  <path class="st3" d="M115.64,50.61c1.69-1.7,6.81-4.99,9.19-5.27,8.98-1.05,21.1,12.41,16.18,21.08-3.58,6.31-9.8-2.33-15.13-2.06s-12.42,9.26-15.12.75c-1.55-4.88,1.44-11.06,4.88-14.51h0Z"/>
  <path class="st3" d="M119.91,26.9c8.65,8.71-1.54,23.03-7.8,11.21-4.21-7.95,1.39-17.66,7.8-11.21Z"/>
  <path class="st3" d="M135.82,24.79c8.95.81,5.97,18.41-2.11,17.59-7.27-.74-5.05-16.51,2.11-17.59Z"/>
  <path class="st3" d="M101.08,38.54c6.21-1.76,13.08,10.29,8.25,13.22-6.71,4.07-16.7-10.83-8.25-13.22Z"/>
  <path class="st3" d="M148.83,38.55c1.76-.35,3.12-.17,4.33,1.25,4.6,5.87-6.85,17.95-11.87,9.75-1.07-3.92,3.69-10.24,7.55-11h-.01Z"/>
</svg>